<svg xmlns="http://www.w3.org/2000/svg" viewBox="0 0 244.89 121.74"><defs><style>.cls-1{fill:#b68856;}</style></defs><g id="Capa_2" data-name="Capa 2"><g id="OUT_SIDE" data-name="OUT SIDE"><g id="ETIQUETA"><path class="cls-1" d="M16.31,0a35.27,35.27,0,0,0,6.08,17.14c3.53,5,8.2,8.73,13.26,12.05,7.62,5,16.07,8,24.78,10.41,3.58,1,7.18,2,10.68,3.27a20.8,20.8,0,0,1,8.53,5.76c3.47,3.89,3.6,12-3.91,14.37a10.52,10.52,0,0,1-1.32.4A3.93,3.93,0,0,0,71,67.07c-1.24,7.5-.73,14.75,3.19,21.47,3.68,6.32,9.31,10.36,16,13.09,4.09,1.69,8.29,3.11,12.28,5,5.69,2.68,9.35,7.28,11.38,13.19a4.91,4.91,0,0,1,.24,1.72c-8.53-7.84-18.9-11.34-30-13.09v-.33c1.26-.22,2.52-.52,3.79-.63s2.7,0,4,0h4.37c-.73-.37-1.25-.68-1.8-.91-5.52-2.35-11.06-4.65-16.56-7a29.6,29.6,0,0,1-12.24-9,27.29,27.29,0,0,1-5.1-13.66,30.66,30.66,0,0,1,2.16-15.15,5.7,5.7,0,0,0-1.55-6.78A70.3,70.3,0,0,0,43.59,42.38,66,66,0,0,1,29.43,33.1c-6.51-5.78-11.13-12.72-13-21.32A30,30,0,0,1,16.05,1.1C16.11.74,16.22.39,16.31,0Z"/><path class="cls-1" d="M130.73,121.61a21.19,21.19,0,0,1,.65-2.4c3-7.61,8.52-12.5,16.2-15,4.69-1.53,9.36-3.07,13.51-5.82C168.37,93.58,173,87,174.25,78.27a35.93,35.93,0,0,0-.71-12.74c-.13-.61-.89-1.22-1.5-1.58a9.15,9.15,0,0,0-2.29-.73,8.78,8.78,0,0,1-4.51-14.41c3.1-3.72,7.28-5.69,11.79-7.1,6.38-2,12.83-3.77,19.1-6.06a64.26,64.26,0,0,0,19.61-11.09C222,19.33,226.38,13,227.88,4.81c.29-1.58.45-3.19.85-4.81.1,1.86.3,3.73.28,5.59-.1,10.22-4.43,18.55-11.57,25.59-4.6,4.54-10,7.86-15.65,11-4.09,2.29-8.22,4.57-12.06,7.24a43,43,0,0,0-6.4,6.13c-1.67,1.76-1.76,3.92-1,6.16a39.31,39.31,0,0,1,2.35,11.48c.37,11.49-5.77,21.18-16.47,25.91-5,2.19-10,4.17-15,6.28a31.78,31.78,0,0,0-4.13,2.14c3.92.22,7.88-.72,11.72.87-11.15,1.75-21.42,5.41-29.77,13.37Z"/><path class="cls-1" d="M46.92,63.94c-1.58-1.64-2.83-3.08-4.23-4.38a47.54,47.54,0,0,0-10.58-7c-4.44-2.31-8.93-4.53-12.86-7.69A35.88,35.88,0,0,1,5.39,19.46C5.18,17.24,5,15,4.79,12.79c0-.25.17-.51.26-.76.23.19.56.33.67.58C6.94,15.17,8,17.86,9.35,20.32A37.63,37.63,0,0,0,26,36.21c8.48,4,14.09,10.52,17.78,18.91,1,2.36,1.94,4.78,2.86,7.18A10.65,10.65,0,0,1,46.92,63.94Z"/><path class="cls-1" d="M198.13,63.48c2.58-8.94,6.4-16.93,13.59-22.89a24.91,24.91,0,0,1,4.22-2.6c5.92-3.17,11.38-6.92,15.76-12.1a39.88,39.88,0,0,0,6.66-11.28,15.63,15.63,0,0,1,1.33-2.69,63.3,63.3,0,0,1,0,7.16C237.9,34.35,229.47,44.68,215.74,51c-6.46,3-12.46,6.58-17.12,12.09A5.81,5.81,0,0,1,198.13,63.48Z"/><path class="cls-1" d="M195.87,73c4-7.72,9.19-14.19,17.82-17.19,5-1.75,9.91-4,14.79-6.16a33.79,33.79,0,0,0,14-11.53,11,11,0,0,1,1.21-1.24,25.69,25.69,0,0,1-1.86,9.31c-3.4,8.33-9,14.39-17.87,16.9a86.35,86.35,0,0,1-9.53,1.71,40.54,40.54,0,0,0-17.36,7.38C196.7,72.45,196.28,72.71,195.87,73Z"/><path class="cls-1" d="M49.62,73.34c-1-.68-1.93-1.26-2.81-1.86A48.32,48.32,0,0,0,27.7,64.13a61.76,61.76,0,0,1-9.43-2C10.46,59.37,5.88,53.4,3.15,45.87c-.89-2.45-1.43-5-2.1-7.54-.06-.25.14-.57.22-.86.24.12.58.16.72.35,6.42,8.56,15.28,13.51,25.26,16.53s16.86,9.24,22.11,17.81a4,4,0,0,1,.3.62A2.24,2.24,0,0,1,49.62,73.34Z"/><path class="cls-1" d="M0,55c2.72,2.13,5.12,4.27,7.77,6a48,48,0,0,0,21.16,7.73,32.63,32.63,0,0,1,22.66,12.8,4.87,4.87,0,0,1,.32.47s0,.06,0,.19c-4-2.11-8.23-2.59-12.6-2.66-2.39,0-4.78,0-7.17-.12-7.47-.37-14.45-2.16-20.26-7.19C7.64,68.6,4.74,64,2.18,59.21,1.47,57.86.79,56.49,0,55Z"/><path class="cls-1" d="M193.13,82c5.47-7.15,12.34-11.84,21.49-13,7.92-1,15.51-3.26,22.25-7.73,2.28-1.51,4.36-3.31,6.53-5,.41-.32.84-.63,1.26-.94l.23.19c-1.87,3.15-3.66,6.36-5.62,9.45A29.6,29.6,0,0,1,216.8,79.1a69.23,69.23,0,0,1-8.77.3C202.91,79.37,197.88,79.72,193.13,82Z"/><path class="cls-1" d="M181.06,92.23a23.47,23.47,0,0,0,6.24-12.64,31.52,31.52,0,0,0-1.58-16,6.93,6.93,0,0,1,1.48-7.68c4.74-5.54,10.73-9.29,17.2-12.41a1.53,1.53,0,0,1,.43-.13c.19,0,.38,0,.74,0-.81.74-1.52,1.37-2.21,2a28.72,28.72,0,0,0-8.71,17.52c-.72,5-1.27,10.09-2.38,15a21.92,21.92,0,0,1-8.89,13.36c-.67.47-1.42.83-2.14,1.24Z"/><path class="cls-1" d="M63.15,92A20.57,20.57,0,0,1,53.09,79.46a71.19,71.19,0,0,1-2.32-13.85A32.46,32.46,0,0,0,41,44.76c-.33-.32-.61-.67-.93-1,.16-.07.25-.14.3-.12C47,46.61,53,50.31,57.75,55.92c.35.41.65.86,1,1.26a4.41,4.41,0,0,1,.84,5.08,34.63,34.63,0,0,0-2.4,12.62,24.36,24.36,0,0,0,2.93,11.73Z"/><path class="cls-1" d="M231.88,78.58c-4.49,7.19-10.53,11.8-19.17,11.91-6.24.07-12.47-.3-18.71-.44-2,0-4.07,0-6.38,0,.36-.37.56-.62.79-.81a25.36,25.36,0,0,1,12.23-5.33,123.07,123.07,0,0,1,12.86-1.14,48.06,48.06,0,0,0,16.35-3.62c.53-.22,1.07-.4,1.62-.6A1.64,1.64,0,0,1,231.88,78.58Z"/><path class="cls-1" d="M57.44,90.07c-.95,0-1.91,0-2.87,0-6.66.17-13.32.31-20,.53-5.49.17-10.53-1-14.9-4.51a25.77,25.77,0,0,1-6.28-7.58c.07,0,.16-.06.21,0,6.21,3.47,13,4.18,20,4.41,5.36.18,10.7.33,15.78,2.33A23.45,23.45,0,0,1,57.44,90.07Z"/><path class="cls-1" d="M180,95a47.87,47.87,0,0,1,11.75-1.58,48.45,48.45,0,0,1,7,.19,15.52,15.52,0,0,1,4.49,1.62,2.79,2.79,0,0,1,1.58,3,2.9,2.9,0,0,1-2.11,2.5,8.25,8.25,0,0,1-5.85.27c-5.39-1.91-10.79-3.77-16.19-5.65A7.51,7.51,0,0,1,180,95Z"/><path class="cls-1" d="M64.47,95.48c-5,1.63-10,3.36-15.1,4.83a22.83,22.83,0,0,1-5.9.66,3.43,3.43,0,0,1-3.11-2.63,3.66,3.66,0,0,1,2-3.59A24.21,24.21,0,0,1,48,93.16c5.64-.65,11.08.48,16.41,2.27C64.48,95.45,64.51,95.53,64.47,95.48Z"/><path class="cls-1" d="M175.26,98.58a2.42,2.42,0,0,1,.59-.2c4.68-.08,9.33.2,13.7,2a16.63,16.63,0,0,1,4,2.63,2.77,2.77,0,0,1,.86,3.34,3,3,0,0,1-2.67,1.72,5.21,5.21,0,0,1-5-1.91,18.21,18.21,0,0,0-8.18-5.75c-1.15-.45-2.27-1-3.41-1.46Z"/><path class="cls-1" d="M69.28,98.91c-4.43,1.69-8,4.59-11.54,7.56-1.65,1.39-3.44,2.18-5.62,1.27-1.94-.81-2.41-2.35-1.2-4.07a10.88,10.88,0,0,1,6-3.91A30.71,30.71,0,0,1,69.28,98.91Z"/></g></g></g></svg>